<svg width="10" height="10" viewBox="0 0 10 10" fill="none" xmlns="http://www.w3.org/2000/svg">
<path d="M5 8.75C7.07107 8.75 8.75 7.07107 8.75 5C8.75 2.92893 7.07107 1.25 5 1.25C2.92893 1.25 1.25 2.92893 1.25 5C1.25 7.07107 2.92893 8.75 5 8.75Z" stroke="white" stroke-opacity="0.4" stroke-linecap="round" stroke-linejoin="round"/>
<path d="M5 7.34375C5.17259 7.34375 5.3125 7.20384 5.3125 7.03125C5.3125 6.85866 5.17259 6.71875 5 6.71875C4.82741 6.71875 4.6875 6.85866 4.6875 7.03125C4.6875 7.20384 4.82741 7.34375 5 7.34375Z" fill="white" fill-opacity="0.4"/>
<path d="M5 5.625V5.3125C5.21632 5.3125 5.42779 5.24835 5.60766 5.12817C5.78752 5.00799 5.92771 4.83717 6.01049 4.63731C6.09328 4.43745 6.11494 4.21754 6.07273 4.00537C6.03053 3.7932 5.92636 3.59832 5.7734 3.44535C5.62043 3.29239 5.42555 3.18822 5.21338 3.14602C5.00121 3.10381 4.7813 3.12547 4.58144 3.20826C4.38158 3.29104 4.21076 3.43123 4.09058 3.6111C3.9704 3.79096 3.90625 4.00243 3.90625 4.21875" stroke="white" stroke-opacity="0.4" stroke-linecap="round" stroke-linejoin="round"/>
</svg>
